<svg width="24" height="24" viewBox="0 0 24 24" fill="none" xmlns="http://www.w3.org/2000/svg">
<g id="9042701_light_bulb_on_icon 1">
<path id="Vector" d="M21 2L20 3" stroke="#C0C0C0" stroke-width="1.5" stroke-linecap="round" stroke-linejoin="round"/>
<path id="Vector_2" d="M3 2L4 3" stroke="#C0C0C0" stroke-width="1.5" stroke-linecap="round" stroke-linejoin="round"/>
<path id="Vector_3" d="M21 16L20 15" stroke="#C0C0C0" stroke-width="1.5" stroke-linecap="round" stroke-linejoin="round"/>
<path id="Vector_4" d="M3 16L4 15" stroke="#C0C0C0" stroke-width="1.5" stroke-linecap="round" stroke-linejoin="round"/>
<path id="Vector_5" d="M9 18H15" stroke="#C0C0C0" stroke-width="1.5" stroke-linecap="round" stroke-linejoin="round"/>
<path id="Vector_6" d="M10 21H14" stroke="#C0C0C0" stroke-width="1.5" stroke-linecap="round" stroke-linejoin="round"/>
<path id="Vector_7" d="M11.9998 3C7.9997 3 5.95186 4.95029 5.99985 8C6.02324 9.48689 6.4997 10.5 7.49985 11.5C8.5 12.5 9 13 8.99985 15H14.9998C15 13.0001 15.5 12.5 16.4997 11.5001C17.4996 10.5001 17.9765 9.48689 17.9998 8C18.0478 4.95029 16 3 11.9998 3Z" stroke="#C0C0C0" stroke-width="1.5" stroke-linecap="round" stroke-linejoin="round"/>
</g>
</svg>
