<svg width="24" height="24" viewBox="0 0 24 24" fill="none" xmlns="http://www.w3.org/2000/svg">
<g id="9043087_swimming_icon 1">
<path id="Vector" d="M3 15C5.48276 15 7.34483 12 7.34483 12C7.34483 12 9.2069 15 11.6897 15C14.1724 15 16.6552 12 16.6552 12C16.6552 12 19.1379 15 21 15" stroke="white" stroke-width="1.5" stroke-linecap="round" stroke-linejoin="round"/>
<path id="Vector_2" d="M3 20C5.48276 20 7.34483 17 7.34483 17C7.34483 17 9.2069 20 11.6897 20C14.1724 20 16.6552 17 16.6552 17C16.6552 17 19.1379 20 21 20" stroke="white" stroke-width="1.5" stroke-linecap="round" stroke-linejoin="round"/>
<path id="Vector_3" d="M15 6.2C15 4.65361 12 2 12 2C12 2 9 4.65361 9 6.2C9 7.74639 10.3431 9 12 9C13.6569 9 15 7.74639 15 6.2Z" stroke="white" stroke-width="1.4"/>
</g>
</svg>
