<svg width="13" height="20" viewBox="0 0 13 20" fill="none" xmlns="http://www.w3.org/2000/svg">
<path fill-rule="evenodd" clip-rule="evenodd" d="M0.5 3C0.5 1.34315 1.84315 0 3.5 0H9.5C11.1569 0 12.5 1.34315 12.5 3V4C12.5 4.55228 12.0523 5 11.5 5C10.9477 5 10.5 4.55228 10.5 4V3C10.5 2.44772 10.0523 2 9.5 2H3.5C2.94772 2 2.5 2.44772 2.5 3V17C2.5 17.5523 2.94772 18 3.5 18H9.5C10.0523 18 10.5 17.5523 10.5 17V16C10.5 15.4477 10.9477 15 11.5 15C12.0523 15 12.5 15.4477 12.5 16V17C12.5 18.6569 11.1569 20 9.5 20H3.5C1.84315 20 0.5 18.6569 0.5 17V3Z" fill="#39B54A"/>
</svg>
