<svg width="18" height="20" viewBox="0 0 18 20" fill="none" xmlns="http://www.w3.org/2000/svg">
<path fill-rule="evenodd" clip-rule="evenodd" d="M18 17C18 18.6569 16.6569 20 15 20H3C1.34315 20 0 18.6569 0 17V3C0 1.34315 1.34315 0 3 0H13L13.0107 0.0107091C13.7136 0.0702502 14.3761 0.376096 14.8787 0.87868L17.1213 3.12132C17.6239 3.6239 17.9297 4.28645 17.9893 4.98929L18 5V17ZM15 18H3C2.44772 18 2 17.5523 2 17V3C2 2.44772 2.44771 2 3 2H12V4C12 5.10457 12.8954 6 14 6H16V17C16 17.5523 15.5523 18 15 18Z" fill="#B56639"/>
</svg>
